<?xml version="1.0" encoding="UTF-8" standalone="no"?>
<!DOCTYPE svg PUBLIC "-//W3C//DTD SVG 1.1//EN" "http://www.w3.org/Graphics/SVG/1.1/DTD/svg11.dtd">
<svg width="100%" height="100%" viewBox="0 0 2160 2160" version="1.1" xmlns="http://www.w3.org/2000/svg" xmlns:xlink="http://www.w3.org/1999/xlink" xml:space="preserve" xmlns:serif="http://www.serif.com/" style="fill-rule:evenodd;clip-rule:evenodd;stroke-linejoin:round;stroke-miterlimit:2;">
    <g transform="matrix(1,0,0,1,-5786.37,-4806.97)">
        <g id="Artboard2" transform="matrix(1,0,0,1,5786.37,4806.97)">
            <rect x="0" y="0" width="2160" height="2160" style="fill:none;"/>
            <g transform="matrix(1,0,0,1,-5786.37,-4806.97)">
                <path d="M6507.9,6026.36L6332.91,5315.67L6787.61,5315.67L6962.6,6026.36L6787.61,6458.28L6332.91,6458.28L6507.9,6026.36Z"/>
                <path d="M6507.9,6026.36L6332.91,5315.67L6787.61,5315.67L6962.6,6026.36L6787.61,6458.28L6332.91,6458.28L6507.9,6026.36ZM6508.83,6026.74L6334.39,6457.28L6786.94,6457.28L6961.55,6026.29L6786.83,5316.67L6334.19,5316.67L6508.87,6026.12C6508.92,6026.33 6508.91,6026.54 6508.83,6026.74Z"/>
            </g>
            <g transform="matrix(-1,0,0,0.949893,7835.86,-3730.08)">
                <path d="M6610.35,5210.55C6668.68,5362.12 6727.01,5513.68 6785.34,5665.25L6553.87,5665.25C6418.94,5665.25 6297.49,5579.1 6246.82,5447.45C6216.43,5368.48 6186.04,5289.52 6155.65,5210.55L6610.35,5210.55Z"/>
                <path d="M6610.35,5210.55L6155.65,5210.55L6246.82,5447.45C6297.49,5579.1 6418.94,5665.25 6553.87,5665.25L6785.34,5665.25L6610.35,5210.55ZM6609.68,5211.6L6783.86,5664.2L6553.87,5664.2C6419.34,5664.2 6298.26,5578.31 6247.75,5447.05L6157.13,5211.6L6609.68,5211.6Z"/>
            </g>
        </g>
    </g>
</svg>
