<?xml version="1.0" encoding="UTF-8" standalone="no"?>
<!DOCTYPE svg PUBLIC "-//W3C//DTD SVG 1.1//EN" "http://www.w3.org/Graphics/SVG/1.1/DTD/svg11.dtd">
<svg width="100%" height="100%" viewBox="0 0 2160 2160" version="1.1" xmlns="http://www.w3.org/2000/svg"
     xmlns:xlink="http://www.w3.org/1999/xlink" xml:space="preserve" xmlns:serif="http://www.serif.com/"
     style="fill-rule:evenodd;clip-rule:evenodd;stroke-linejoin:round;stroke-miterlimit:2;">
    <g transform="matrix(1,0,0,1,-5786.37,-4806.97)">
        <g id="Artboard2" transform="matrix(1,0,0,1,5786.37,4806.97)">
            <rect x="0" y="0" width="2160" height="2160" style="fill:none;"/>
            <clipPath id="_clip1">
                <rect x="0" y="0" width="2160" height="2160"/>
            </clipPath>
            <g clip-path="url(#_clip1)">
                <g transform="matrix(1.8904,0,0,1.8904,-11963.3,-10048.8)">
                    <path d="M6507.9,6026.36L6332.91,5315.67L6787.61,5315.67L6962.6,6026.36L6787.61,6458.28L6332.91,6458.28L6507.9,6026.36Z"/>
                    <path d="M6507.9,6026.36L6332.91,5315.67L6787.61,5315.67L6962.6,6026.36L6787.61,6458.28L6332.91,6458.28L6507.9,6026.36ZM6508.39,6026.56L6333.69,6457.75L6787.25,6457.75L6962.05,6026.32L6787.2,5316.2L6333.59,5316.2L6508.41,6026.24C6508.44,6026.35 6508.43,6026.46 6508.39,6026.56Z"/>
                </g>
                <g transform="matrix(-1.8904,0,0,1.79568,13788.2,-8012.99)">
                    <path d="M6610.35,5210.55C6668.68,5362.12 6727.01,5513.68 6785.34,5665.25C6673.14,5665.25 6560.93,5665.25 6448.73,5665.25C6377.35,5665.25 6313.1,5619.68 6286.3,5550.04C6242.75,5436.87 6199.2,5323.71 6155.65,5210.55L6610.35,5210.55Z"/>
                    <path d="M6610.35,5210.55L6155.65,5210.55L6286.3,5550.04C6313.1,5619.68 6377.35,5665.25 6448.73,5665.25L6785.34,5665.25L6610.35,5210.55ZM6609.99,5211.11L6784.56,5664.69L6448.73,5664.69C6377.56,5664.69 6313.51,5619.26 6286.79,5549.83L6156.44,5211.11L6609.99,5211.11Z"/>
                </g>
            </g>
        </g>
    </g>
</svg>
